<?xml version="1.0" encoding="utf-8"?>
<!-- Generator: Fusion 360, Shaper Origin Export Add-In, Version 1.6.10  -->
<svg xmlns="http://www.w3.org/2000/svg" xmlns:xlink="http://www.w3.org/1999/xlink" xmlns:shaper="http://www.shapertools.com/namespaces/shaper" shaper:fusionaddin="version:1.6.10" width="24.6cm" height="24cm" version="1.1" x="0cm" y="0cm" viewBox="0 0 24.6 24" enable-background="new 0 0 24.6 24" xml:space="preserve"><path d="M-9.9535,12 L14.6465,12 14.6465,-12 -9.9535,-12 -9.9535,12z" transform="matrix(1,0,0,-1,9.9535,12)" fill="rgb(0,0,0)" shaper:cutDepth="0.004" stroke-linecap="round" stroke-linejoin="round" /><path d="M-3.22,-5.8368 L-1.76,-5.8368 -1.76,-4.3768 -3.22,-4.3768 -3.22,-5.8368z" transform="matrix(1,0,0,-1,9.9535,12)" fill="rgb(255,255,255)" stroke="rgb(0,0,0)" stroke-width="0.0010cm" stroke-linecap="round" stroke-linejoin="round" shaper:cutDepth="0.004" /><path d="M-5.08,-1.0568 L-6.54,-1.0568 -6.54,-2.5168 -5.08,-2.5168 -5.08,-1.0568z" transform="matrix(1,0,0,-1,9.9535,12)" fill="rgb(255,255,255)" stroke="rgb(0,0,0)" stroke-width="0.0010cm" stroke-linecap="round" stroke-linejoin="round" shaper:cutDepth="0.004" /><path d="M-1.56,-4.1768 L-0.1,-4.1768 -0.1,-2.7168 -1.56,-2.7168 -1.56,-4.1768z" transform="matrix(1,0,0,-1,9.9535,12)" fill="rgb(255,255,255)" stroke="rgb(0,0,0)" stroke-width="0.0010cm" stroke-linecap="round" stroke-linejoin="round" shaper:cutDepth="0.004" /><path d="M1.56,-1.0568 L0.1,-1.0568 0.1,-2.5168 1.56,-2.5168 1.56,-1.0568z" transform="matrix(1,0,0,-1,9.9535,12)" fill="rgb(255,255,255)" stroke="rgb(0,0,0)" stroke-width="0.0010cm" stroke-linecap="round" stroke-linejoin="round" shaper:cutDepth="0.004" /><path d="M-3.42,2.2632 L-4.88,2.2632 -4.88,0.8032 -3.42,0.8032 -3.42,2.2632z" transform="matrix(1,0,0,-1,9.9535,12)" fill="rgb(255,255,255)" stroke="rgb(0,0,0)" stroke-width="0.0010cm" stroke-linecap="round" stroke-linejoin="round" shaper:cutDepth="0.004" /><path d="M3.42,-5.8368 L4.88,-5.8368 4.88,-4.3768 3.42,-4.3768 3.42,-5.8368z" transform="matrix(1,0,0,-1,9.9535,12)" fill="rgb(255,255,255)" stroke="rgb(0,0,0)" stroke-width="0.0010cm" stroke-linecap="round" stroke-linejoin="round" shaper:cutDepth="0.004" /><path d="M-3.42,0.6032 L-4.88,0.6032 -4.88,-0.8568 -3.42,-0.8568 -3.42,0.6032z" transform="matrix(1,0,0,-1,9.9535,12)" fill="rgb(255,255,255)" stroke="rgb(0,0,0)" stroke-width="0.0010cm" stroke-linecap="round" stroke-linejoin="round" shaper:cutDepth="0.004" /><path d="M3.22,0.6032 L1.76,0.6032 1.76,-0.8568 3.22,-0.8568 3.22,0.6032z" transform="matrix(1,0,0,-1,9.9535,12)" fill="rgb(255,255,255)" stroke="rgb(0,0,0)" stroke-width="0.0010cm" stroke-linecap="round" stroke-linejoin="round" shaper:cutDepth="0.004" /><path d="M1.56,2.2632 L0.1,2.2632 0.1,0.8032 1.56,0.8032 1.56,2.2632z" transform="matrix(1,0,0,-1,9.9535,12)" fill="rgb(255,255,255)" stroke="rgb(0,0,0)" stroke-width="0.0010cm" stroke-linecap="round" stroke-linejoin="round" shaper:cutDepth="0.004" /><path d="M4.88,5.5832 L3.42,5.5832 3.42,4.1232 4.88,4.1232 4.88,5.5832z" transform="matrix(1,0,0,-1,9.9535,12)" fill="rgb(255,255,255)" stroke="rgb(0,0,0)" stroke-width="0.0010cm" stroke-linecap="round" stroke-linejoin="round" shaper:cutDepth="0.004" /><path d="M-0.1,3.9232 L-1.56,3.9232 -1.56,2.4632 -0.1,2.4632 -0.1,3.9232z" transform="matrix(1,0,0,-1,9.9535,12)" fill="rgb(255,255,255)" stroke="rgb(0,0,0)" stroke-width="0.0010cm" stroke-linecap="round" stroke-linejoin="round" shaper:cutDepth="0.004" /><path d="M-3.42,5.5832 L-4.88,5.5832 -4.88,4.1232 -3.42,4.1232 -3.42,5.5832z" transform="matrix(1,0,0,-1,9.9535,12)" fill="rgb(255,255,255)" stroke="rgb(0,0,0)" stroke-width="0.0010cm" stroke-linecap="round" stroke-linejoin="round" shaper:cutDepth="0.004" /><path d="M-6.74,3.9232 L-8.2,3.9232 -8.2,2.4632 -6.74,2.4632 -6.74,3.9232z" transform="matrix(1,0,0,-1,9.9535,12)" fill="rgb(255,255,255)" stroke="rgb(0,0,0)" stroke-width="0.0010cm" stroke-linecap="round" stroke-linejoin="round" shaper:cutDepth="0.004" /><path d="M-8.2,-4.1768 L-6.74,-4.1768 -6.74,-2.7168 -8.2,-2.7168 -8.2,-4.1768z" transform="matrix(1,0,0,-1,9.9535,12)" fill="rgb(255,255,255)" stroke="rgb(0,0,0)" stroke-width="0.0010cm" stroke-linecap="round" stroke-linejoin="round" shaper:cutDepth="0.004" /><path d="M-6.54,-9.1568 L-5.08,-9.1568 -5.08,-7.6968 -6.54,-7.6968 -6.54,-9.1568z" transform="matrix(1,0,0,-1,9.9535,12)" fill="rgb(255,255,255)" stroke="rgb(0,0,0)" stroke-width="0.0010cm" stroke-linecap="round" stroke-linejoin="round" shaper:cutDepth="0.004" /><path d="M-3.22,-9.1568 L-1.76,-9.1568 -1.76,-7.6968 -3.22,-7.6968 -3.22,-9.1568z" transform="matrix(1,0,0,-1,9.9535,12)" fill="rgb(255,255,255)" stroke="rgb(0,0,0)" stroke-width="0.0010cm" stroke-linecap="round" stroke-linejoin="round" shaper:cutDepth="0.004" /><path d="M0.1,-9.1568 L1.56,-9.1568 1.56,-7.6968 0.1,-7.6968 0.1,-9.1568z" transform="matrix(1,0,0,-1,9.9535,12)" fill="rgb(255,255,255)" stroke="rgb(0,0,0)" stroke-width="0.0010cm" stroke-linecap="round" stroke-linejoin="round" shaper:cutDepth="0.004" /><path d="M3.42,-7.4968 L4.88,-7.4968 4.88,-6.0368 3.42,-6.0368 3.42,-7.4968z" transform="matrix(1,0,0,-1,9.9535,12)" fill="rgb(255,255,255)" stroke="rgb(0,0,0)" stroke-width="0.0010cm" stroke-linecap="round" stroke-linejoin="round" shaper:cutDepth="0.004" /><path d="M6.54,-1.0568 L5.08,-1.0568 5.08,-2.5168 6.54,-2.5168 6.54,-1.0568z" transform="matrix(1,0,0,-1,9.9535,12)" fill="rgb(255,255,255)" stroke="rgb(0,0,0)" stroke-width="0.0010cm" stroke-linecap="round" stroke-linejoin="round" shaper:cutDepth="0.004" /><path d="M6.54,5.5832 L5.08,5.5832 5.08,4.1232 6.54,4.1232 6.54,5.5832z" transform="matrix(1,0,0,-1,9.9535,12)" fill="rgb(255,255,255)" stroke="rgb(0,0,0)" stroke-width="0.0010cm" stroke-linecap="round" stroke-linejoin="round" shaper:cutDepth="0.004" /><path d="M1.56,7.2432 L0.1,7.2432 0.1,5.7832 1.56,5.7832 1.56,7.2432z" transform="matrix(1,0,0,-1,9.9535,12)" fill="rgb(255,255,255)" stroke="rgb(0,0,0)" stroke-width="0.0010cm" stroke-linecap="round" stroke-linejoin="round" shaper:cutDepth="0.004" /><path d="M-5.08,7.2432 L-6.54,7.2432 -6.54,5.7832 -5.08,5.7832 -5.08,7.2432z" transform="matrix(1,0,0,-1,9.9535,12)" fill="rgb(255,255,255)" stroke="rgb(0,0,0)" stroke-width="0.0010cm" stroke-linecap="round" stroke-linejoin="round" shaper:cutDepth="0.004" /><path d="M-4.88,8.9032 L-4.88,7.4432 -3.42,7.4432 -3.42,8.9032 -4.88,8.9032z" transform="matrix(1,0,0,-1,9.9535,12)" fill="rgb(255,255,255)" stroke="rgb(0,0,0)" stroke-width="0.0010cm" stroke-linecap="round" stroke-linejoin="round" shaper:cutDepth="0.004" /><path d="M1.76,8.9032 L1.76,7.4432 3.22,7.4432 3.22,8.9032 1.76,8.9032z" transform="matrix(1,0,0,-1,9.9535,12)" fill="rgb(255,255,255)" stroke="rgb(0,0,0)" stroke-width="0.0010cm" stroke-linecap="round" stroke-linejoin="round" shaper:cutDepth="0.004" /><path d="M5.08,-9.1568 L6.54,-9.1568 6.54,-7.6968 5.08,-7.6968 5.08,-9.1568z" transform="matrix(1,0,0,-1,9.9535,12)" fill="rgb(255,255,255)" stroke="rgb(0,0,0)" stroke-width="0.0010cm" stroke-linecap="round" stroke-linejoin="round" shaper:cutDepth="0.004" /><path d="M8.4,-7.4968 L9.86,-7.4968 9.86,-6.0368 8.4,-6.0368 8.4,-7.4968z" transform="matrix(1,0,0,-1,9.9535,12)" fill="rgb(255,255,255)" stroke="rgb(0,0,0)" stroke-width="0.0010cm" stroke-linecap="round" stroke-linejoin="round" shaper:cutDepth="0.004" /><path d="M8.4,-4.1768 L9.86,-4.1768 9.86,-2.7168 8.4,-2.7168 8.4,-4.1768z" transform="matrix(1,0,0,-1,9.9535,12)" fill="rgb(255,255,255)" stroke="rgb(0,0,0)" stroke-width="0.0010cm" stroke-linecap="round" stroke-linejoin="round" shaper:cutDepth="0.004" /><path d="M9.86,2.2632 L8.4,2.2632 8.4,0.8032 9.86,0.8032 9.86,2.2632z" transform="matrix(1,0,0,-1,9.9535,12)" fill="rgb(255,255,255)" stroke="rgb(0,0,0)" stroke-width="0.0010cm" stroke-linecap="round" stroke-linejoin="round" shaper:cutDepth="0.004" /><path d="M9.86,3.9232 L8.4,3.9232 8.4,2.4632 9.86,2.4632 9.86,3.9232z" transform="matrix(1,0,0,-1,9.9535,12)" fill="rgb(255,255,255)" stroke="rgb(0,0,0)" stroke-width="0.0010cm" stroke-linecap="round" stroke-linejoin="round" shaper:cutDepth="0.004" /><path d="M6.74,8.9032 L6.74,7.4432 8.2,7.4432 8.2,8.9032 6.74,8.9032z" transform="matrix(1,0,0,-1,9.9535,12)" fill="rgb(255,255,255)" stroke="rgb(0,0,0)" stroke-width="0.0010cm" stroke-linecap="round" stroke-linejoin="round" shaper:cutDepth="0.004" /><path d="M10.06,-6.0368 L10.06,-7.4968 11.52,-7.4968 11.52,-6.0368 10.06,-6.0368z" transform="matrix(1,0,0,-1,9.9535,12)" fill="rgb(255,255,255)" stroke="rgb(0,0,0)" stroke-width="0.0010cm" stroke-linecap="round" stroke-linejoin="round" shaper:cutDepth="0.004" /><path d="M10.06,0.6032 L10.06,-0.8568 11.52,-0.8568 11.52,0.6032 10.06,0.6032z" transform="matrix(1,0,0,-1,9.9535,12)" fill="rgb(255,255,255)" stroke="rgb(0,0,0)" stroke-width="0.0010cm" stroke-linecap="round" stroke-linejoin="round" shaper:cutDepth="0.004" /><path d="M10.06,7.4432 L11.52,7.4432 11.52,8.9032 10.06,8.9032 10.06,7.4432z" transform="matrix(1,0,0,-1,9.9535,12)" fill="rgb(255,255,255)" stroke="rgb(0,0,0)" stroke-width="0.0010cm" stroke-linecap="round" stroke-linejoin="round" shaper:cutDepth="0.004" /><path d="M10.06,5.5832 L10.06,4.1232 11.52,4.1232 11.52,5.5832 10.06,5.5832z" transform="matrix(1,0,0,-1,9.9535,12)" fill="rgb(255,255,255)" stroke="rgb(0,0,0)" stroke-width="0.0010cm" stroke-linecap="round" stroke-linejoin="round" shaper:cutDepth="0.004" /><path d="M10.06,-1.0568 L10.06,-2.5168 11.52,-2.5168 11.52,-1.0568 10.06,-1.0568z" transform="matrix(1,0,0,-1,9.9535,12)" fill="rgb(255,255,255)" stroke="rgb(0,0,0)" stroke-width="0.0010cm" stroke-linecap="round" stroke-linejoin="round" shaper:cutDepth="0.004" /><path d="M10.06,-7.6968 L10.06,-9.1568 11.52,-9.1568 11.52,-7.6968 10.06,-7.6968z" transform="matrix(1,0,0,-1,9.9535,12)" fill="rgb(255,255,255)" stroke="rgb(0,0,0)" stroke-width="0.0010cm" stroke-linecap="round" stroke-linejoin="round" shaper:cutDepth="0.004" /><path d="M8.2,7.2432 L6.74,7.2432 6.74,5.7832 8.2,5.7832 8.2,7.2432z" transform="matrix(1,0,0,-1,9.9535,12)" fill="rgb(255,255,255)" stroke="rgb(0,0,0)" stroke-width="0.0010cm" stroke-linecap="round" stroke-linejoin="round" shaper:cutDepth="0.004" /><path d="M8.2,3.9232 L6.74,3.9232 6.74,2.4632 8.2,2.4632 8.2,3.9232z" transform="matrix(1,0,0,-1,9.9535,12)" fill="rgb(255,255,255)" stroke="rgb(0,0,0)" stroke-width="0.0010cm" stroke-linecap="round" stroke-linejoin="round" shaper:cutDepth="0.004" /><path d="M8.2,0.6032 L6.74,0.6032 6.74,-0.8568 8.2,-0.8568 8.2,0.6032z" transform="matrix(1,0,0,-1,9.9535,12)" fill="rgb(255,255,255)" stroke="rgb(0,0,0)" stroke-width="0.0010cm" stroke-linecap="round" stroke-linejoin="round" shaper:cutDepth="0.004" /><path d="M6.74,-4.1768 L8.2,-4.1768 8.2,-2.7168 6.74,-2.7168 6.74,-4.1768z" transform="matrix(1,0,0,-1,9.9535,12)" fill="rgb(255,255,255)" stroke="rgb(0,0,0)" stroke-width="0.0010cm" stroke-linecap="round" stroke-linejoin="round" shaper:cutDepth="0.004" /><path d="M8.4,-9.1568 L9.86,-9.1568 9.86,-7.6968 8.4,-7.6968 8.4,-9.1568z" transform="matrix(1,0,0,-1,9.9535,12)" fill="rgb(255,255,255)" stroke="rgb(0,0,0)" stroke-width="0.0010cm" stroke-linecap="round" stroke-linejoin="round" shaper:cutDepth="0.004" /><path d="M3.42,-9.1568 L4.88,-9.1568 4.88,-7.6968 3.42,-7.6968 3.42,-9.1568z" transform="matrix(1,0,0,-1,9.9535,12)" fill="rgb(255,255,255)" stroke="rgb(0,0,0)" stroke-width="0.0010cm" stroke-linecap="round" stroke-linejoin="round" shaper:cutDepth="0.004" /><path d="M0.1,8.9032 L0.1,7.4432 1.56,7.4432 1.56,8.9032 0.1,8.9032z" transform="matrix(1,0,0,-1,9.9535,12)" fill="rgb(255,255,255)" stroke="rgb(0,0,0)" stroke-width="0.0010cm" stroke-linecap="round" stroke-linejoin="round" shaper:cutDepth="0.004" /><path d="M-6.54,8.9032 L-6.54,7.4432 -5.08,7.4432 -5.08,8.9032 -6.54,8.9032z" transform="matrix(1,0,0,-1,9.9535,12)" fill="rgb(255,255,255)" stroke="rgb(0,0,0)" stroke-width="0.0010cm" stroke-linecap="round" stroke-linejoin="round" shaper:cutDepth="0.004" /><path d="M-3.42,7.2432 L-4.88,7.2432 -4.88,5.7832 -3.42,5.7832 -3.42,7.2432z" transform="matrix(1,0,0,-1,9.9535,12)" fill="rgb(255,255,255)" stroke="rgb(0,0,0)" stroke-width="0.0010cm" stroke-linecap="round" stroke-linejoin="round" shaper:cutDepth="0.004" /><path d="M3.22,7.2432 L1.76,7.2432 1.76,5.7832 3.22,5.7832 3.22,7.2432z" transform="matrix(1,0,0,-1,9.9535,12)" fill="rgb(255,255,255)" stroke="rgb(0,0,0)" stroke-width="0.0010cm" stroke-linecap="round" stroke-linejoin="round" shaper:cutDepth="0.004" /><path d="M6.54,3.9232 L5.08,3.9232 5.08,2.4632 6.54,2.4632 6.54,3.9232z" transform="matrix(1,0,0,-1,9.9535,12)" fill="rgb(255,255,255)" stroke="rgb(0,0,0)" stroke-width="0.0010cm" stroke-linecap="round" stroke-linejoin="round" shaper:cutDepth="0.004" /><path d="M5.08,-4.1768 L6.54,-4.1768 6.54,-2.7168 5.08,-2.7168 5.08,-4.1768z" transform="matrix(1,0,0,-1,9.9535,12)" fill="rgb(255,255,255)" stroke="rgb(0,0,0)" stroke-width="0.0010cm" stroke-linecap="round" stroke-linejoin="round" shaper:cutDepth="0.004" /><path d="M1.76,-9.1568 L3.22,-9.1568 3.22,-7.6968 1.76,-7.6968 1.76,-9.1568z" transform="matrix(1,0,0,-1,9.9535,12)" fill="rgb(255,255,255)" stroke="rgb(0,0,0)" stroke-width="0.0010cm" stroke-linecap="round" stroke-linejoin="round" shaper:cutDepth="0.004" /><path d="M-1.56,-9.1568 L-0.1,-9.1568 -0.1,-7.6968 -1.56,-7.6968 -1.56,-9.1568z" transform="matrix(1,0,0,-1,9.9535,12)" fill="rgb(255,255,255)" stroke="rgb(0,0,0)" stroke-width="0.0010cm" stroke-linecap="round" stroke-linejoin="round" shaper:cutDepth="0.004" /><path d="M-4.88,-9.1568 L-3.42,-9.1568 -3.42,-7.6968 -4.88,-7.6968 -4.88,-9.1568z" transform="matrix(1,0,0,-1,9.9535,12)" fill="rgb(255,255,255)" stroke="rgb(0,0,0)" stroke-width="0.0010cm" stroke-linecap="round" stroke-linejoin="round" shaper:cutDepth="0.004" /><path d="M-8.2,-9.1568 L-6.74,-9.1568 -6.74,-7.6968 -8.2,-7.6968 -8.2,-9.1568z" transform="matrix(1,0,0,-1,9.9535,12)" fill="rgb(255,255,255)" stroke="rgb(0,0,0)" stroke-width="0.0010cm" stroke-linecap="round" stroke-linejoin="round" shaper:cutDepth="0.004" /><path d="M-6.74,-1.0568 L-8.2,-1.0568 -8.2,-2.5168 -6.74,-2.5168 -6.74,-1.0568z" transform="matrix(1,0,0,-1,9.9535,12)" fill="rgb(255,255,255)" stroke="rgb(0,0,0)" stroke-width="0.0010cm" stroke-linecap="round" stroke-linejoin="round" shaper:cutDepth="0.004" /><path d="M-6.74,5.5832 L-8.2,5.5832 -8.2,4.1232 -6.74,4.1232 -6.74,5.5832z" transform="matrix(1,0,0,-1,9.9535,12)" fill="rgb(255,255,255)" stroke="rgb(0,0,0)" stroke-width="0.0010cm" stroke-linecap="round" stroke-linejoin="round" shaper:cutDepth="0.004" /><path d="M-1.76,5.5832 L-3.22,5.5832 -3.22,4.1232 -1.76,4.1232 -1.76,5.5832z" transform="matrix(1,0,0,-1,9.9535,12)" fill="rgb(255,255,255)" stroke="rgb(0,0,0)" stroke-width="0.0010cm" stroke-linecap="round" stroke-linejoin="round" shaper:cutDepth="0.004" /><path d="M-0.1,5.5832 L-1.56,5.5832 -1.56,4.1232 -0.1,4.1232 -0.1,5.5832z" transform="matrix(1,0,0,-1,9.9535,12)" fill="rgb(255,255,255)" stroke="rgb(0,0,0)" stroke-width="0.0010cm" stroke-linecap="round" stroke-linejoin="round" shaper:cutDepth="0.004" /><path d="M4.88,3.9232 L3.42,3.9232 3.42,2.4632 4.88,2.4632 4.88,3.9232z" transform="matrix(1,0,0,-1,9.9535,12)" fill="rgb(255,255,255)" stroke="rgb(0,0,0)" stroke-width="0.0010cm" stroke-linecap="round" stroke-linejoin="round" shaper:cutDepth="0.004" /><path d="M3.22,2.2632 L1.76,2.2632 1.76,0.8032 3.22,0.8032 3.22,2.2632z" transform="matrix(1,0,0,-1,9.9535,12)" fill="rgb(255,255,255)" stroke="rgb(0,0,0)" stroke-width="0.0010cm" stroke-linecap="round" stroke-linejoin="round" shaper:cutDepth="0.004" /><path d="M1.56,0.6032 L0.1,0.6032 0.1,-0.8568 1.56,-0.8568 1.56,0.6032z" transform="matrix(1,0,0,-1,9.9535,12)" fill="rgb(255,255,255)" stroke="rgb(0,0,0)" stroke-width="0.0010cm" stroke-linecap="round" stroke-linejoin="round" shaper:cutDepth="0.004" /><path d="M-5.08,0.6032 L-6.54,0.6032 -6.54,-0.8568 -5.08,-0.8568 -5.08,0.6032z" transform="matrix(1,0,0,-1,9.9535,12)" fill="rgb(255,255,255)" stroke="rgb(0,0,0)" stroke-width="0.0010cm" stroke-linecap="round" stroke-linejoin="round" shaper:cutDepth="0.004" /><path d="M1.76,-5.8368 L3.22,-5.8368 3.22,-4.3768 1.76,-4.3768 1.76,-5.8368z" transform="matrix(1,0,0,-1,9.9535,12)" fill="rgb(255,255,255)" stroke="rgb(0,0,0)" stroke-width="0.0010cm" stroke-linecap="round" stroke-linejoin="round" shaper:cutDepth="0.004" /><path d="M-5.08,2.2632 L-6.54,2.2632 -6.54,0.8032 -5.08,0.8032 -5.08,2.2632z" transform="matrix(1,0,0,-1,9.9535,12)" fill="rgb(255,255,255)" stroke="rgb(0,0,0)" stroke-width="0.0010cm" stroke-linecap="round" stroke-linejoin="round" shaper:cutDepth="0.004" /><path d="M0.1,-4.1768 L1.56,-4.1768 1.56,-2.7168 0.1,-2.7168 0.1,-4.1768z" transform="matrix(1,0,0,-1,9.9535,12)" fill="rgb(255,255,255)" stroke="rgb(0,0,0)" stroke-width="0.0010cm" stroke-linecap="round" stroke-linejoin="round" shaper:cutDepth="0.004" /><path d="M-1.56,-5.8368 L-0.1,-5.8368 -0.1,-4.3768 -1.56,-4.3768 -1.56,-5.8368z" transform="matrix(1,0,0,-1,9.9535,12)" fill="rgb(255,255,255)" stroke="rgb(0,0,0)" stroke-width="0.0010cm" stroke-linecap="round" stroke-linejoin="round" shaper:cutDepth="0.004" /><path d="M-3.42,-1.0568 L-4.88,-1.0568 -4.88,-2.5168 -3.42,-2.5168 -3.42,-1.0568z" transform="matrix(1,0,0,-1,9.9535,12)" fill="rgb(255,255,255)" stroke="rgb(0,0,0)" stroke-width="0.0010cm" stroke-linecap="round" stroke-linejoin="round" shaper:cutDepth="0.004" /><path d="M-4.88,-5.8368 L-3.42,-5.8368 -3.42,-4.3768 -4.88,-4.3768 -4.88,-5.8368z" transform="matrix(1,0,0,-1,9.9535,12)" fill="rgb(255,255,255)" stroke="rgb(0,0,0)" stroke-width="0.0010cm" stroke-linecap="round" stroke-linejoin="round" shaper:cutDepth="0.004" /><path d="M-3.22,-4.1768 L-1.76,-4.1768 -1.76,-2.7168 -3.22,-2.7168 -3.22,-4.1768z" transform="matrix(1,0,0,-1,9.9535,12)" fill="rgb(255,255,255)" stroke="rgb(0,0,0)" stroke-width="0.0010cm" stroke-linecap="round" stroke-linejoin="round" shaper:cutDepth="0.004" /><path d="M-6.54,-4.1768 L-5.08,-4.1768 -5.08,-2.7168 -6.54,-2.7168 -6.54,-4.1768z" transform="matrix(1,0,0,-1,9.9535,12)" fill="rgb(255,255,255)" stroke="rgb(0,0,0)" stroke-width="0.0010cm" stroke-linecap="round" stroke-linejoin="round" shaper:cutDepth="0.004" /><path d="M-0.1,-1.0568 L-1.56,-1.0568 -1.56,-2.5168 -0.1,-2.5168 -0.1,-1.0568z" transform="matrix(1,0,0,-1,9.9535,12)" fill="rgb(255,255,255)" stroke="rgb(0,0,0)" stroke-width="0.0010cm" stroke-linecap="round" stroke-linejoin="round" shaper:cutDepth="0.004" /><path d="M1.76,-4.1768 L3.22,-4.1768 3.22,-2.7168 1.76,-2.7168 1.76,-4.1768z" transform="matrix(1,0,0,-1,9.9535,12)" fill="rgb(255,255,255)" stroke="rgb(0,0,0)" stroke-width="0.0010cm" stroke-linecap="round" stroke-linejoin="round" shaper:cutDepth="0.004" /><path d="M-1.76,2.2632 L-3.22,2.2632 -3.22,0.8032 -1.76,0.8032 -1.76,2.2632z" transform="matrix(1,0,0,-1,9.9535,12)" fill="rgb(255,255,255)" stroke="rgb(0,0,0)" stroke-width="0.0010cm" stroke-linecap="round" stroke-linejoin="round" shaper:cutDepth="0.004" /><path d="M3.42,-4.1768 L4.88,-4.1768 4.88,-2.7168 3.42,-2.7168 3.42,-4.1768z" transform="matrix(1,0,0,-1,9.9535,12)" fill="rgb(255,255,255)" stroke="rgb(0,0,0)" stroke-width="0.0010cm" stroke-linecap="round" stroke-linejoin="round" shaper:cutDepth="0.004" /><path d="M-1.76,0.6032 L-3.22,0.6032 -3.22,-0.8568 -1.76,-0.8568 -1.76,0.6032z" transform="matrix(1,0,0,-1,9.9535,12)" fill="rgb(255,255,255)" stroke="rgb(0,0,0)" stroke-width="0.0010cm" stroke-linecap="round" stroke-linejoin="round" shaper:cutDepth="0.004" /><path d="M4.88,0.6032 L3.42,0.6032 3.42,-0.8568 4.88,-0.8568 4.88,0.6032z" transform="matrix(1,0,0,-1,9.9535,12)" fill="rgb(255,255,255)" stroke="rgb(0,0,0)" stroke-width="0.0010cm" stroke-linecap="round" stroke-linejoin="round" shaper:cutDepth="0.004" /><path d="M1.56,3.9232 L0.1,3.9232 0.1,2.4632 1.56,2.4632 1.56,3.9232z" transform="matrix(1,0,0,-1,9.9535,12)" fill="rgb(255,255,255)" stroke="rgb(0,0,0)" stroke-width="0.0010cm" stroke-linecap="round" stroke-linejoin="round" shaper:cutDepth="0.004" /><path d="M3.22,5.5832 L1.76,5.5832 1.76,4.1232 3.22,4.1232 3.22,5.5832z" transform="matrix(1,0,0,-1,9.9535,12)" fill="rgb(255,255,255)" stroke="rgb(0,0,0)" stroke-width="0.0010cm" stroke-linecap="round" stroke-linejoin="round" shaper:cutDepth="0.004" /><path d="M-3.42,3.9232 L-4.88,3.9232 -4.88,2.4632 -3.42,2.4632 -3.42,3.9232z" transform="matrix(1,0,0,-1,9.9535,12)" fill="rgb(255,255,255)" stroke="rgb(0,0,0)" stroke-width="0.0010cm" stroke-linecap="round" stroke-linejoin="round" shaper:cutDepth="0.004" /><path d="M-5.08,3.9232 L-6.54,3.9232 -6.54,2.4632 -5.08,2.4632 -5.08,3.9232z" transform="matrix(1,0,0,-1,9.9535,12)" fill="rgb(255,255,255)" stroke="rgb(0,0,0)" stroke-width="0.0010cm" stroke-linecap="round" stroke-linejoin="round" shaper:cutDepth="0.004" /><path d="M-6.74,2.2632 L-8.2,2.2632 -8.2,0.8032 -6.74,0.8032 -6.74,2.2632z" transform="matrix(1,0,0,-1,9.9535,12)" fill="rgb(255,255,255)" stroke="rgb(0,0,0)" stroke-width="0.0010cm" stroke-linecap="round" stroke-linejoin="round" shaper:cutDepth="0.004" /><path d="M-8.2,-5.8368 L-6.74,-5.8368 -6.74,-4.3768 -8.2,-4.3768 -8.2,-5.8368z" transform="matrix(1,0,0,-1,9.9535,12)" fill="rgb(255,255,255)" stroke="rgb(0,0,0)" stroke-width="0.0010cm" stroke-linecap="round" stroke-linejoin="round" shaper:cutDepth="0.004" /><path d="M-6.54,-7.4968 L-5.08,-7.4968 -5.08,-6.0368 -6.54,-6.0368 -6.54,-7.4968z" transform="matrix(1,0,0,-1,9.9535,12)" fill="rgb(255,255,255)" stroke="rgb(0,0,0)" stroke-width="0.0010cm" stroke-linecap="round" stroke-linejoin="round" shaper:cutDepth="0.004" /><path d="M-3.22,-7.4968 L-1.76,-7.4968 -1.76,-6.0368 -3.22,-6.0368 -3.22,-7.4968z" transform="matrix(1,0,0,-1,9.9535,12)" fill="rgb(255,255,255)" stroke="rgb(0,0,0)" stroke-width="0.0010cm" stroke-linecap="round" stroke-linejoin="round" shaper:cutDepth="0.004" /><path d="M0.1,-7.4968 L1.56,-7.4968 1.56,-6.0368 0.1,-6.0368 0.1,-7.4968z" transform="matrix(1,0,0,-1,9.9535,12)" fill="rgb(255,255,255)" stroke="rgb(0,0,0)" stroke-width="0.0010cm" stroke-linecap="round" stroke-linejoin="round" shaper:cutDepth="0.004" /><path d="M5.08,-7.4968 L6.54,-7.4968 6.54,-6.0368 5.08,-6.0368 5.08,-7.4968z" transform="matrix(1,0,0,-1,9.9535,12)" fill="rgb(255,255,255)" stroke="rgb(0,0,0)" stroke-width="0.0010cm" stroke-linecap="round" stroke-linejoin="round" shaper:cutDepth="0.004" /><path d="M6.54,0.6032 L5.08,0.6032 5.08,-0.8568 6.54,-0.8568 6.54,0.6032z" transform="matrix(1,0,0,-1,9.9535,12)" fill="rgb(255,255,255)" stroke="rgb(0,0,0)" stroke-width="0.0010cm" stroke-linecap="round" stroke-linejoin="round" shaper:cutDepth="0.004" /><path d="M6.54,7.2432 L5.08,7.2432 5.08,5.7832 6.54,5.7832 6.54,7.2432z" transform="matrix(1,0,0,-1,9.9535,12)" fill="rgb(255,255,255)" stroke="rgb(0,0,0)" stroke-width="0.0010cm" stroke-linecap="round" stroke-linejoin="round" shaper:cutDepth="0.004" /><path d="M-0.1,7.2432 L-1.56,7.2432 -1.56,5.7832 -0.1,5.7832 -0.1,7.2432z" transform="matrix(1,0,0,-1,9.9535,12)" fill="rgb(255,255,255)" stroke="rgb(0,0,0)" stroke-width="0.0010cm" stroke-linecap="round" stroke-linejoin="round" shaper:cutDepth="0.004" /><path d="M-6.74,7.2432 L-8.2,7.2432 -8.2,5.7832 -6.74,5.7832 -6.74,7.2432z" transform="matrix(1,0,0,-1,9.9535,12)" fill="rgb(255,255,255)" stroke="rgb(0,0,0)" stroke-width="0.0010cm" stroke-linecap="round" stroke-linejoin="round" shaper:cutDepth="0.004" /><path d="M-3.22,8.9032 L-3.22,7.4432 -1.76,7.4432 -1.76,8.9032 -3.22,8.9032z" transform="matrix(1,0,0,-1,9.9535,12)" fill="rgb(255,255,255)" stroke="rgb(0,0,0)" stroke-width="0.0010cm" stroke-linecap="round" stroke-linejoin="round" shaper:cutDepth="0.004" /><path d="M3.42,8.9032 L3.42,7.4432 4.88,7.4432 4.88,8.9032 3.42,8.9032z" transform="matrix(1,0,0,-1,9.9535,12)" fill="rgb(255,255,255)" stroke="rgb(0,0,0)" stroke-width="0.0010cm" stroke-linecap="round" stroke-linejoin="round" shaper:cutDepth="0.004" /><path d="M6.74,-7.4968 L8.2,-7.4968 8.2,-6.0368 6.74,-6.0368 6.74,-7.4968z" transform="matrix(1,0,0,-1,9.9535,12)" fill="rgb(255,255,255)" stroke="rgb(0,0,0)" stroke-width="0.0010cm" stroke-linecap="round" stroke-linejoin="round" shaper:cutDepth="0.004" /><path d="M6.74,-5.8368 L8.2,-5.8368 8.2,-4.3768 6.74,-4.3768 6.74,-5.8368z" transform="matrix(1,0,0,-1,9.9535,12)" fill="rgb(255,255,255)" stroke="rgb(0,0,0)" stroke-width="0.0010cm" stroke-linecap="round" stroke-linejoin="round" shaper:cutDepth="0.004" /><path d="M8.2,-1.0568 L6.74,-1.0568 6.74,-2.5168 8.2,-2.5168 8.2,-1.0568z" transform="matrix(1,0,0,-1,9.9535,12)" fill="rgb(255,255,255)" stroke="rgb(0,0,0)" stroke-width="0.0010cm" stroke-linecap="round" stroke-linejoin="round" shaper:cutDepth="0.004" /><path d="M8.2,2.2632 L6.74,2.2632 6.74,0.8032 8.2,0.8032 8.2,2.2632z" transform="matrix(1,0,0,-1,9.9535,12)" fill="rgb(255,255,255)" stroke="rgb(0,0,0)" stroke-width="0.0010cm" stroke-linecap="round" stroke-linejoin="round" shaper:cutDepth="0.004" /><path d="M8.2,5.5832 L6.74,5.5832 6.74,4.1232 8.2,4.1232 8.2,5.5832z" transform="matrix(1,0,0,-1,9.9535,12)" fill="rgb(255,255,255)" stroke="rgb(0,0,0)" stroke-width="0.0010cm" stroke-linecap="round" stroke-linejoin="round" shaper:cutDepth="0.004" /><path d="M9.86,7.2432 L8.4,7.2432 8.4,5.7832 9.86,5.7832 9.86,7.2432z" transform="matrix(1,0,0,-1,9.9535,12)" fill="rgb(255,255,255)" stroke="rgb(0,0,0)" stroke-width="0.0010cm" stroke-linecap="round" stroke-linejoin="round" shaper:cutDepth="0.004" /><path d="M10.06,-4.3768 L10.06,-5.8368 11.52,-5.8368 11.52,-4.3768 10.06,-4.3768z" transform="matrix(1,0,0,-1,9.9535,12)" fill="rgb(255,255,255)" stroke="rgb(0,0,0)" stroke-width="0.0010cm" stroke-linecap="round" stroke-linejoin="round" shaper:cutDepth="0.004" /><path d="M10.06,2.2632 L10.06,0.8032 11.52,0.8032 11.52,2.2632 10.06,2.2632z" transform="matrix(1,0,0,-1,9.9535,12)" fill="rgb(255,255,255)" stroke="rgb(0,0,0)" stroke-width="0.0010cm" stroke-linecap="round" stroke-linejoin="round" shaper:cutDepth="0.004" /><path d="M10.06,7.2432 L10.06,5.7832 11.52,5.7832 11.52,7.2432 10.06,7.2432z" transform="matrix(1,0,0,-1,9.9535,12)" fill="rgb(255,255,255)" stroke="rgb(0,0,0)" stroke-width="0.0010cm" stroke-linecap="round" stroke-linejoin="round" shaper:cutDepth="0.004" /><path d="M10.06,3.9232 L10.06,2.4632 11.52,2.4632 11.52,3.9232 10.06,3.9232z" transform="matrix(1,0,0,-1,9.9535,12)" fill="rgb(255,255,255)" stroke="rgb(0,0,0)" stroke-width="0.0010cm" stroke-linecap="round" stroke-linejoin="round" shaper:cutDepth="0.004" /><path d="M10.06,-2.7168 L10.06,-4.1768 11.52,-4.1768 11.52,-2.7168 10.06,-2.7168z" transform="matrix(1,0,0,-1,9.9535,12)" fill="rgb(255,255,255)" stroke="rgb(0,0,0)" stroke-width="0.0010cm" stroke-linecap="round" stroke-linejoin="round" shaper:cutDepth="0.004" /><path d="M8.4,8.9032 L8.4,7.4432 9.86,7.4432 9.86,8.9032 8.4,8.9032z" transform="matrix(1,0,0,-1,9.9535,12)" fill="rgb(255,255,255)" stroke="rgb(0,0,0)" stroke-width="0.0010cm" stroke-linecap="round" stroke-linejoin="round" shaper:cutDepth="0.004" /><path d="M9.86,5.5832 L8.4,5.5832 8.4,4.1232 9.86,4.1232 9.86,5.5832z" transform="matrix(1,0,0,-1,9.9535,12)" fill="rgb(255,255,255)" stroke="rgb(0,0,0)" stroke-width="0.0010cm" stroke-linecap="round" stroke-linejoin="round" shaper:cutDepth="0.004" /><path d="M9.86,0.6032 L8.4,0.6032 8.4,-0.8568 9.86,-0.8568 9.86,0.6032z" transform="matrix(1,0,0,-1,9.9535,12)" fill="rgb(255,255,255)" stroke="rgb(0,0,0)" stroke-width="0.0010cm" stroke-linecap="round" stroke-linejoin="round" shaper:cutDepth="0.004" /><path d="M9.86,-1.0568 L8.4,-1.0568 8.4,-2.5168 9.86,-2.5168 9.86,-1.0568z" transform="matrix(1,0,0,-1,9.9535,12)" fill="rgb(255,255,255)" stroke="rgb(0,0,0)" stroke-width="0.0010cm" stroke-linecap="round" stroke-linejoin="round" shaper:cutDepth="0.004" /><path d="M8.4,-5.8368 L9.86,-5.8368 9.86,-4.3768 8.4,-4.3768 8.4,-5.8368z" transform="matrix(1,0,0,-1,9.9535,12)" fill="rgb(255,255,255)" stroke="rgb(0,0,0)" stroke-width="0.0010cm" stroke-linecap="round" stroke-linejoin="round" shaper:cutDepth="0.004" /><path d="M6.74,-9.1568 L8.2,-9.1568 8.2,-7.6968 6.74,-7.6968 6.74,-9.1568z" transform="matrix(1,0,0,-1,9.9535,12)" fill="rgb(255,255,255)" stroke="rgb(0,0,0)" stroke-width="0.0010cm" stroke-linecap="round" stroke-linejoin="round" shaper:cutDepth="0.004" /><path d="M5.08,8.9032 L5.08,7.4432 6.54,7.4432 6.54,8.9032 5.08,8.9032z" transform="matrix(1,0,0,-1,9.9535,12)" fill="rgb(255,255,255)" stroke="rgb(0,0,0)" stroke-width="0.0010cm" stroke-linecap="round" stroke-linejoin="round" shaper:cutDepth="0.004" /><path d="M-1.56,8.9032 L-1.56,7.4432 -0.1,7.4432 -0.1,8.9032 -1.56,8.9032z" transform="matrix(1,0,0,-1,9.9535,12)" fill="rgb(255,255,255)" stroke="rgb(0,0,0)" stroke-width="0.0010cm" stroke-linecap="round" stroke-linejoin="round" shaper:cutDepth="0.004" /><path d="M-8.2,8.9032 L-8.2,7.4432 -6.74,7.4432 -6.74,8.9032 -8.2,8.9032z" transform="matrix(1,0,0,-1,9.9535,12)" fill="rgb(255,255,255)" stroke="rgb(0,0,0)" stroke-width="0.0010cm" stroke-linecap="round" stroke-linejoin="round" shaper:cutDepth="0.004" /><path d="M-1.76,7.2432 L-3.22,7.2432 -3.22,5.7832 -1.76,5.7832 -1.76,7.2432z" transform="matrix(1,0,0,-1,9.9535,12)" fill="rgb(255,255,255)" stroke="rgb(0,0,0)" stroke-width="0.0010cm" stroke-linecap="round" stroke-linejoin="round" shaper:cutDepth="0.004" /><path d="M4.88,7.2432 L3.42,7.2432 3.42,5.7832 4.88,5.7832 4.88,7.2432z" transform="matrix(1,0,0,-1,9.9535,12)" fill="rgb(255,255,255)" stroke="rgb(0,0,0)" stroke-width="0.0010cm" stroke-linecap="round" stroke-linejoin="round" shaper:cutDepth="0.004" /><path d="M6.54,2.2632 L5.08,2.2632 5.08,0.8032 6.54,0.8032 6.54,2.2632z" transform="matrix(1,0,0,-1,9.9535,12)" fill="rgb(255,255,255)" stroke="rgb(0,0,0)" stroke-width="0.0010cm" stroke-linecap="round" stroke-linejoin="round" shaper:cutDepth="0.004" /><path d="M5.08,-5.8368 L6.54,-5.8368 6.54,-4.3768 5.08,-4.3768 5.08,-5.8368z" transform="matrix(1,0,0,-1,9.9535,12)" fill="rgb(255,255,255)" stroke="rgb(0,0,0)" stroke-width="0.0010cm" stroke-linecap="round" stroke-linejoin="round" shaper:cutDepth="0.004" /><path d="M1.76,-7.4968 L3.22,-7.4968 3.22,-6.0368 1.76,-6.0368 1.76,-7.4968z" transform="matrix(1,0,0,-1,9.9535,12)" fill="rgb(255,255,255)" stroke="rgb(0,0,0)" stroke-width="0.0010cm" stroke-linecap="round" stroke-linejoin="round" shaper:cutDepth="0.004" /><path d="M-1.56,-7.4968 L-0.1,-7.4968 -0.1,-6.0368 -1.56,-6.0368 -1.56,-7.4968z" transform="matrix(1,0,0,-1,9.9535,12)" fill="rgb(255,255,255)" stroke="rgb(0,0,0)" stroke-width="0.0010cm" stroke-linecap="round" stroke-linejoin="round" shaper:cutDepth="0.004" /><path d="M-4.88,-7.4968 L-3.42,-7.4968 -3.42,-6.0368 -4.88,-6.0368 -4.88,-7.4968z" transform="matrix(1,0,0,-1,9.9535,12)" fill="rgb(255,255,255)" stroke="rgb(0,0,0)" stroke-width="0.0010cm" stroke-linecap="round" stroke-linejoin="round" shaper:cutDepth="0.004" /><path d="M-8.2,-7.4968 L-6.74,-7.4968 -6.74,-6.0368 -8.2,-6.0368 -8.2,-7.4968z" transform="matrix(1,0,0,-1,9.9535,12)" fill="rgb(255,255,255)" stroke="rgb(0,0,0)" stroke-width="0.0010cm" stroke-linecap="round" stroke-linejoin="round" shaper:cutDepth="0.004" /><path d="M-6.74,0.6032 L-8.2,0.6032 -8.2,-0.8568 -6.74,-0.8568 -6.74,0.6032z" transform="matrix(1,0,0,-1,9.9535,12)" fill="rgb(255,255,255)" stroke="rgb(0,0,0)" stroke-width="0.0010cm" stroke-linecap="round" stroke-linejoin="round" shaper:cutDepth="0.004" /><path d="M-5.08,5.5832 L-6.54,5.5832 -6.54,4.1232 -5.08,4.1232 -5.08,5.5832z" transform="matrix(1,0,0,-1,9.9535,12)" fill="rgb(255,255,255)" stroke="rgb(0,0,0)" stroke-width="0.0010cm" stroke-linecap="round" stroke-linejoin="round" shaper:cutDepth="0.004" /><path d="M-1.76,3.9232 L-3.22,3.9232 -3.22,2.4632 -1.76,2.4632 -1.76,3.9232z" transform="matrix(1,0,0,-1,9.9535,12)" fill="rgb(255,255,255)" stroke="rgb(0,0,0)" stroke-width="0.0010cm" stroke-linecap="round" stroke-linejoin="round" shaper:cutDepth="0.004" /><path d="M1.56,5.5832 L0.1,5.5832 0.1,4.1232 1.56,4.1232 1.56,5.5832z" transform="matrix(1,0,0,-1,9.9535,12)" fill="rgb(255,255,255)" stroke="rgb(0,0,0)" stroke-width="0.0010cm" stroke-linecap="round" stroke-linejoin="round" shaper:cutDepth="0.004" /><path d="M3.22,3.9232 L1.76,3.9232 1.76,2.4632 3.22,2.4632 3.22,3.9232z" transform="matrix(1,0,0,-1,9.9535,12)" fill="rgb(255,255,255)" stroke="rgb(0,0,0)" stroke-width="0.0010cm" stroke-linecap="round" stroke-linejoin="round" shaper:cutDepth="0.004" /><path d="M4.88,2.2632 L3.42,2.2632 3.42,0.8032 4.88,0.8032 4.88,2.2632z" transform="matrix(1,0,0,-1,9.9535,12)" fill="rgb(255,255,255)" stroke="rgb(0,0,0)" stroke-width="0.0010cm" stroke-linecap="round" stroke-linejoin="round" shaper:cutDepth="0.004" /><path d="M-0.1,0.6032 L-1.56,0.6032 -1.56,-0.8568 -0.1,-0.8568 -0.1,0.6032z" transform="matrix(1,0,0,-1,9.9535,12)" fill="rgb(255,255,255)" stroke="rgb(0,0,0)" stroke-width="0.0010cm" stroke-linecap="round" stroke-linejoin="round" shaper:cutDepth="0.004" /><path d="M4.88,-1.0568 L3.42,-1.0568 3.42,-2.5168 4.88,-2.5168 4.88,-1.0568z" transform="matrix(1,0,0,-1,9.9535,12)" fill="rgb(255,255,255)" stroke="rgb(0,0,0)" stroke-width="0.0010cm" stroke-linecap="round" stroke-linejoin="round" shaper:cutDepth="0.004" /><path d="M-0.1,2.2632 L-1.56,2.2632 -1.56,0.8032 -0.1,0.8032 -0.1,2.2632z" transform="matrix(1,0,0,-1,9.9535,12)" fill="rgb(255,255,255)" stroke="rgb(0,0,0)" stroke-width="0.0010cm" stroke-linecap="round" stroke-linejoin="round" shaper:cutDepth="0.004" /><path d="M3.22,-1.0568 L1.76,-1.0568 1.76,-2.5168 3.22,-2.5168 3.22,-1.0568z" transform="matrix(1,0,0,-1,9.9535,12)" fill="rgb(255,255,255)" stroke="rgb(0,0,0)" stroke-width="0.0010cm" stroke-linecap="round" stroke-linejoin="round" shaper:cutDepth="0.004" /><path d="M0.1,-5.8368 L1.56,-5.8368 1.56,-4.3768 0.1,-4.3768 0.1,-5.8368z" transform="matrix(1,0,0,-1,9.9535,12)" fill="rgb(255,255,255)" stroke="rgb(0,0,0)" stroke-width="0.0010cm" stroke-linecap="round" stroke-linejoin="round" shaper:cutDepth="0.004" /><path d="M-6.54,-5.8368 L-5.08,-5.8368 -5.08,-4.3768 -6.54,-4.3768 -6.54,-5.8368z" transform="matrix(1,0,0,-1,9.9535,12)" fill="rgb(255,255,255)" stroke="rgb(0,0,0)" stroke-width="0.0010cm" stroke-linecap="round" stroke-linejoin="round" shaper:cutDepth="0.004" /><path d="M-1.76,-1.0568 L-3.22,-1.0568 -3.22,-2.5168 -1.76,-2.5168 -1.76,-1.0568z" transform="matrix(1,0,0,-1,9.9535,12)" fill="rgb(255,255,255)" stroke="rgb(0,0,0)" stroke-width="0.0010cm" stroke-linecap="round" stroke-linejoin="round" shaper:cutDepth="0.004" /><path d="M-4.88,-4.1768 L-3.42,-4.1768 -3.42,-2.7168 -4.88,-2.7168 -4.88,-4.1768z" transform="matrix(1,0,0,-1,9.9535,12)" fill="rgb(255,255,255)" stroke="rgb(0,0,0)" stroke-width="0.0010cm" stroke-linecap="round" stroke-linejoin="round" shaper:cutDepth="0.004" /></svg>